# xmcd
#
# Track frame offsets:
#  150
#  13619
#  26840
#  41414
#  56100
#  67822
#  79144
#  91711
#  102364
#  118229
#  138576
#  152719
#
# Disc length: 2186 seconds
#
# Revision: 1
# Processed by: cddbd v1.5.2PL0 Copyright (c) Steve Scherf et al.
# Submitted via: AltoMP3_Maker 3.0
#
DISCID=9908880c
DTITLE=VARIOS - POR SIEMPRE BOLEROS VOL.1
DYEAR=1900
DGENRE=
TTITLE0=CUANDO YA NO ME QUIERAS - TItO RODRIGUEZ
TTITLE1=LA HIEDRA - LOS PANCHOS
TTITLE2=EL RELOJ - LUCHO GATICA
TTITLE3=NUESTRO JURAMENTO - JULIO JARAMILLO
TTITLE4=PIEL CANELA - PEDRO VARGAS
TTITLE5=QUE ME QUEMEN TUS OJOS - RAMON AGUILERA
TTITLE6=ANGUSTIA - LEO MARINI
TTITLE7=MAR Y CIELO - TRIO AZUL
TTITLE8=TU ME ACOSTUMBRASTE - OLGA GUILLOT
TTITLE9=ENTREGA TOTAL_LA MEDIA VUELTA_SOMBRAS
TTITLE10=CORAZON LOCO - LOS DIAMANTES DEL SOL
TTITLE11=NADIE ME QUIERE NADIE ME AMA - NAT KING COLE
EXTD=
EXTT0=
EXTT1=
EXTT2=
EXTT3=
EXTT4=
EXTT5=
EXTT6=
EXTT7=
EXTT8=
EXTT9=
EXTT10=
EXTT11=
PLAYORDER=
